<?xml version="1.0" standalone="no"?>
<svg version="1.0"
 width="672.000000pt"
 height="715.000000pt"
 viewBox="0 0 672.000000 715.000000"
 preserveAspectRatio="xMidYMid meet">
<g transform="translate(0.000000,715.000000) scale(0.100000,-0.100000)"
fill="#000000" stroke="none">
<path fill="#1d0033" d="M175 7066 c-50 -22 -83 -69 -90 -128 -3 -29 -5 -379 -3 -778 3 -807
0 -767 71 -810 31 -19 55 -20 733 -20 l701 0 34 23 c65 43 69 63 69 341 0 233
-1 250 -21 286 -55 98 -198 98 -250 0 -16 -30 -19 -58 -19 -197 l0 -163 -510
0 -510 0 0 580 0 580 510 0 510 0 0 -86 c0 -102 16 -144 67 -176 72 -44 149
-24 201 52 19 28 22 46 22 126 l0 94 168 0 c148 0 171 2 199 20 46 28 66 64
67 120 1 53 -18 87 -68 124 -27 21 -36 21 -939 23 -743 2 -918 0 -942 -11z"/>
<path fill="#1d0033" d="M2650 7062 c-19 -9 -45 -32 -57 -51 -43 -63 -23 -168 39 -203 19 -11
371 -14 1873 -18 l1850 -5 5 -245 c5 -264 7 -272 62 -311 64 -46 148 -27 202
45 20 26 21 42 24 353 3 313 2 327 -18 368 -16 32 -33 49 -64 64 -42 21 -44
21 -1962 21 -1807 0 -1921 -1 -1954 -18z"/>
<path fill="#1d0033" d="M2195 6487 c-67 -23 -101 -44 -143 -92 -54 -62 -76 -128 -70 -215 11
-151 117 -257 269 -268 89 -6 158 17 220 75 68 63 92 120 93 213 1 85 -20 142
-73 203 -66 75 -204 114 -296 84z"/>
<path fill="#1d0033" d="M3945 6487 c-67 -23 -101 -44 -143 -92 -54 -62 -76 -128 -70 -215 11
-151 117 -257 269 -268 124 -9 229 51 287 163 21 40 26 64 26 125 1 85 -20
142 -73 203 -66 75 -204 114 -296 84z"/>
<path fill="#8e58b8" d="M3047 6476 c-196 -72 -252 -334 -102 -479 61 -60 118 -82 205 -81 61
0 85 5 126 27 100 51 164 155 164 263 0 101 -72 214 -165 259 -51 25 -175 31
-228 11z"/>
<path fill="#8e58b8" d="M4797 6476 c-196 -72 -252 -334 -102 -479 61 -60 118 -82 205 -81 61
0 85 5 126 27 100 51 164 155 164 263 0 101 -72 214 -165 259 -51 25 -175 31
-228 11z"/>
<path fill="#1d0033" d="M2195 5740 c-32 -21 -65 -73 -65 -102 0 -10 -7 -18 -15 -18 -9 0 -34
-9 -56 -21 -50 -25 -84 -92 -76 -145 11 -63 72 -124 127 -124 20 0 20 -5 20
-236 0 -266 4 -286 69 -326 36 -23 41 -23 419 -26 l382 -3 0 -69 0 -70 -957 0
c-920 0 -960 -1 -1000 -19 -71 -33 -83 -69 -83 -261 l0 -160 -237 0 c-220 0
-240 -2 -271 -20 -98 -60 -94 -201 8 -252 30 -16 66 -18 268 -18 l232 0 0
-144 0 -144 -30 -7 c-120 -26 -151 -202 -47 -265 18 -11 42 -20 53 -20 17 0
23 -8 28 -35 9 -46 65 -102 112 -111 75 -14 143 27 169 103 l13 38 71 3 71 3
0 -92 c0 -107 15 -148 67 -181 72 -44 149 -24 201 52 19 28 22 46 22 127 l0
94 73 -3 72 -3 5 -101 c6 -112 19 -142 73 -170 43 -23 113 -21 145 3 57 42 67
68 70 174 l4 99 726 -2 727 -3 5 -101 c6 -112 19 -142 73 -170 43 -23 113 -21
145 3 57 42 67 68 70 174 l4 99 654 0 654 0 0 -381 c0 -421 1 -427 64 -472 22
-16 45 -22 83 -22 60 0 99 23 125 76 17 32 18 115 18 1309 0 1246 -1 1276 -20
1307 -37 62 -56 67 -245 73 l-170 5 0 70 0 70 757 5 c745 5 757 5 785 26 49
36 63 78 63 187 0 112 -12 150 -59 190 -80 67 -231 7 -231 -93 0 -20 -1 -20
-660 -20 -659 0 -660 0 -660 20 0 63 -66 120 -138 120 -71 0 -126 -39 -142
-102 l-11 -38 -288 0 -288 0 -12 39 c-6 22 -27 53 -46 70 -30 26 -44 31 -87
31 -33 0 -62 -7 -83 -20 -32 -20 -65 -72 -65 -104 0 -14 -31 -16 -295 -16
-291 0 -295 0 -295 20 0 63 -66 120 -138 120 -71 0 -126 -39 -142 -102 l-11
-38 -288 0 -288 0 -12 39 c-6 22 -27 53 -46 70 -30 26 -44 31 -88 31 -35 0
-62 -7 -82 -20z m805 -555 l0 -145 -290 0 -290 0 0 145 0 145 290 0 290 0 0
-145z m880 -24 c0 -158 1 -170 23 -202 45 -69 48 -69 470 -69 l377 0 0 -365 0
-365 -435 0 -434 0 -3 389 c-3 376 -4 391 -24 417 -51 69 -51 69 -320 72
l-244 4 0 137 c0 76 3 141 7 144 3 4 136 7 295 7 l288 0 0 -169z m870 94 l0
-75 -290 0 -290 0 0 75 0 75 290 0 290 0 0 -75z m440 -1020 l0 -655 -655 0
-655 0 0 145 0 145 525 0 c569 0 552 -2 605 55 l25 27 3 469 3 469 74 0 75 0
0 -655z m-1600 215 l0 -290 -745 0 c-814 0 -791 2 -833 -57 -34 -48 -37 -100
-10 -152 45 -86 -8 -81 840 -81 l748 0 0 -145 0 -145 -950 0 -950 0 0 233 c0
255 -5 278 -63 321 -26 19 -45 21 -203 24 l-175 3 3 72 3 72 975 5 c1076 6
998 0 1041 67 17 24 19 49 19 196 l0 167 150 0 150 0 0 -290z m-2190 -725 l0
-145 -75 0 -75 0 0 145 0 145 75 0 75 0 0 -145z"/>
<path fill="#1d0033" d="M524 5027 c-2 -7 -3 -74 -2 -148 l3 -134 145 0 145 0 0 145 0 145
-143 3 c-111 2 -144 0 -148 -11z"/>
<path fill="#8e58b8" d="M5770 4600 l0 -150 145 0 145 0 0 -145 0 -145 150 0 150 0 0 150 0
150 -145 0 -145 0 0 145 0 145 -150 0 -150 0 0 -150z"/>
<path fill="#1d0033" d="M186 3570 c-15 -5 -37 -17 -48 -27 -51 -46 -48 45 -48 -1718 0 -1809
-5 -1673 58 -1720 26 -19 45 -20 655 -23 563 -2 632 -1 662 14 102 48 99 204
-5 256 -32 16 -80 18 -557 18 l-523 0 -2 1554 c-3 1552 -3 1555 -24 1582 -44
60 -106 84 -168 64z"/>
<path fill="#1d0033" d="M6000 3558 c-95 -49 -107 -161 -25 -238 26 -24 32 -25 203 -30 l177
-5 3 -1457 2 -1458 -2130 0 -2131 0 -40 -21 c-76 -38 -99 -139 -49 -209 46
-65 -140 -60 2308 -60 l2229 0 33 23 c18 12 41 38 51 57 18 33 19 97 19 1664
0 1625 0 1630 -21 1672 -15 31 -32 48 -63 63 -39 19 -60 21 -282 21 -229 0
-242 -1 -284 -22z"/>
<path fill="#1d0033" d="M5630 2995 l0 -145 290 0 290 0 0 145 0 145 -290 0 -290 0 0 -145z"/>
<path fill="#8e58b8" d="M1014 2832 c-75 -27 -128 -73 -163 -144 -60 -119 -36 -255 61 -344
62 -58 119 -77 210 -72 86 5 136 26 191 81 108 108 111 282 8 400 -71 80 -207
115 -307 79z"/>
<path fill="#1d0033" d="M1887 2836 c-89 -32 -158 -103 -188 -194 -17 -50 -7 -169 19 -217 25
-50 98 -118 149 -141 24 -11 66 -17 113 -18 98 -1 173 33 230 105 49 62 65
108 64 189 -1 122 -80 236 -191 274 -56 19 -144 20 -196 2z"/>
<path fill="#8e58b8" d="M2764 2832 c-75 -27 -128 -73 -163 -144 -60 -119 -36 -255 61 -344
62 -58 119 -77 210 -72 86 5 136 26 191 81 108 108 111 282 8 400 -71 80 -207
115 -307 79z"/>
<path fill="#8e58b8" d="M3637 2836 c-89 -32 -158 -103 -188 -194 -17 -50 -7 -169 19 -217 25
-50 98 -118 149 -141 24 -11 66 -17 113 -18 98 -1 173 33 230 105 49 62 65
108 64 189 -1 122 -80 236 -191 274 -56 19 -144 20 -196 2z"/>
<path fill="#1d0033" d="M5770 2555 l0 -146 148 3 147 3 3 143 3 142 -151 0 -150 0 0 -145z"/>
<path fill="#8e58b8" d="M5770 2120 l0 -150 150 0 150 0 0 150 0 150 -150 0 -150 0 0 -150z"/>
<path fill="#1d0033" d="M1018 2110 c-69 -21 -153 -97 -184 -167 -25 -57 -24 -176 2 -234 51
-110 148 -173 268 -173 258 -1 389 292 221 492 -14 17 -53 45 -87 61 -51 26
-73 31 -127 30 -36 0 -78 -4 -93 -9z"/>
<path fill="#1d0033" d="M1885 2103 c-75 -26 -158 -112 -180 -188 -29 -98 -6 -205 59 -282 43
-52 137 -93 211 -93 90 0 151 24 211 84 60 60 84 121 84 210 0 193 -200 332
-385 269z"/>
<path fill="#1d0033" d="M2768 2110 c-123 -37 -218 -179 -205 -305 16 -159 136 -269 291 -269
258 -1 389 292 221 492 -14 17 -53 45 -87 61 -51 26 -73 31 -127 30 -36 0 -78
-4 -93 -9z"/>
<path fill="#8e58b8" d="M3635 2103 c-75 -26 -158 -112 -180 -188 -29 -98 -6 -205 59 -282 43
-52 137 -93 211 -93 90 0 151 24 211 84 60 60 84 121 84 210 0 193 -200 332
-385 269z"/>
<path fill="#1d0033" d="M5260 1948 c-68 -46 -70 -57 -70 -400 l0 -307 -469 -3 -469 -3 -27
-25 c-82 -77 -70 -189 25 -238 44 -22 44 -22 575 -22 531 0 531 0 575 23 81
40 80 35 80 490 0 429 0 425 -54 476 -39 36 -119 41 -166 9z"/>
<path fill="#8e58b8" d="M5777 1824 c-4 -4 -7 -70 -7 -146 l0 -138 150 0 151 0 -3 143 -3 142
-141 3 c-77 1 -143 -1 -147 -4z"/>
<path fill="#8e58b8" d="M1017 1376 c-128 -46 -197 -146 -197 -285 0 -167 138 -291 309 -279
109 8 194 67 243 167 33 68 31 178 -5 247 -66 128 -222 195 -350 150z"/>
<path fill="#1d0033" d="M1873 1374 c-57 -21 -123 -82 -153 -140 -21 -42 -25 -63 -25 -139 0
-80 3 -95 27 -135 61 -103 148 -154 263 -154 82 0 148 27 205 84 139 139 101
381 -75 473 -53 27 -182 33 -242 11z"/>
<path fill="#8e58b8" d="M2767 1376 c-128 -46 -197 -146 -197 -285 0 -167 138 -291 309 -279
109 8 194 67 243 167 33 68 31 178 -5 247 -66 128 -222 195 -350 150z"/>
<path fill="#1d0033" d="M3623 1374 c-57 -21 -123 -82 -153 -140 -21 -42 -25 -63 -25 -139 0
-80 3 -95 27 -135 61 -103 148 -154 263 -154 82 0 148 27 205 84 139 139 101
381 -75 473 -53 27 -182 33 -242 11z"/>
</g>
</svg>
